<svg width="698" height="698" fill="none" xmlns="http://www.w3.org/2000/svg"><path d="m302.192 257.921-.553.281c-50.938 25.853-71.272 88.104-45.419 139.042l.28.553c25.854 50.937 88.105 71.272 139.042 45.419l.553-.281c50.938-25.853 71.272-88.104 45.419-139.042l-.281-.553c-25.853-50.937-88.104-71.272-139.041-45.419Z" stroke="url(#a)" stroke-width="4" stroke-miterlimit="10"/><path opacity=".89" d="m288.437 230.427-.705.357c-65.943 33.47-92.268 114.06-58.799 180.003l.358.705c33.469 65.943 114.059 92.269 180.003 58.799l.704-.357c65.943-33.47 92.269-114.06 58.799-180.003l-.357-.705c-33.47-65.943-114.06-92.269-180.003-58.799Z" stroke="url(#b)" stroke-width="3.56" stroke-miterlimit="10"/><path opacity=".78" d="m274.695 202.914-.883.448c-80.944 41.083-113.258 140.006-72.175 220.951l.448.883c41.083 80.944 140.006 113.258 220.951 72.175l.883-.448c80.944-41.084 113.258-140.006 72.175-220.951l-.448-.883c-41.084-80.944-140.007-113.258-220.951-72.175Z" stroke="url(#c)" stroke-width="3.11" stroke-miterlimit="10"/><path opacity=".67" d="m260.939 175.405-1.043.53c-95.951 48.699-134.255 165.961-85.556 261.911l.53 1.044c48.699 95.95 165.961 134.254 261.912 85.555l1.043-.53c95.95-48.699 134.255-165.961 85.555-261.911l-.529-1.044c-48.7-95.95-165.962-134.254-261.912-85.555Z" stroke="url(#d)" stroke-width="2.67" stroke-miterlimit="10"/><path opacity=".56" d="m247.193 147.906-1.203.611C135.033 204.833 90.738 340.434 147.054 451.39l.611 1.204c56.316 110.956 191.916 155.251 302.873 98.935l1.204-.611c110.956-56.315 155.251-191.916 98.935-302.872l-.611-1.204C493.75 135.886 358.15 91.59 247.193 147.906Z" stroke="url(#e)" stroke-width="2.22" stroke-miterlimit="10"/><path opacity=".44" d="m233.437 120.407-1.364.693C106.111 185.032 55.825 338.971 119.757 464.934l.693 1.364c63.932 125.962 217.871 176.248 343.834 112.316l1.364-.693C591.61 513.989 641.896 360.05 577.964 234.088l-.693-1.365C513.339 106.761 359.4 56.475 233.437 120.407Z" stroke="url(#f)" stroke-width="1.78" stroke-miterlimit="10"/><path opacity=".33" d="m219.7 92.894-1.525.774C77.207 165.216 20.931 337.495 92.479 478.463l.774 1.525c71.548 140.968 243.827 197.244 384.795 125.696l1.525-.774c140.968-71.548 197.244-243.827 125.696-384.795l-.774-1.525C532.947 77.622 360.668 21.346 219.7 92.894Z" stroke="url(#g)" stroke-width="1.34" stroke-miterlimit="10"/><path opacity=".22" d="m205.954 65.395-1.685.855C48.295 145.415-13.971 336.032 65.193 492.007l.855 1.685c79.164 155.974 269.782 218.241 425.756 139.076l1.685-.855c155.975-79.165 218.241-269.782 139.077-425.756l-.856-1.686C552.546 48.497 361.928-13.769 205.954 65.395Z" stroke="url(#h)" stroke-width=".89" stroke-miterlimit="10"/><path opacity=".11" d="m192.207 37.892-1.863.946C19.369 125.616-48.886 334.566 37.892 505.54l.945 1.864c86.779 170.975 295.729 239.23 466.704 152.452l1.864-.946c170.975-86.778 239.23-295.728 152.452-466.704l-.946-1.863C572.133 19.369 363.183-48.886 192.207 37.892Z" stroke="#000" stroke-width=".45" stroke-miterlimit="10"/><path d="M249.656 307.244c4.415 5.316 12.294 6.05 17.602 1.643 5.308-4.406 6.032-12.285 1.618-17.599-4.415-5.315-12.294-6.05-17.603-1.643-5.308 4.407-6.032 12.286-1.617 17.599Z" fill="#F7AE1B"/><path d="M395.656 44.244c4.415 5.316 12.294 6.05 17.602 1.644 5.308-4.407 6.032-12.286 1.618-17.6-4.415-5.315-12.294-6.05-17.603-1.643-5.308 4.407-6.032 12.286-1.617 17.6Z" fill="#CBC6BE"/><path d="M101.656 102.243c4.415 5.316 12.294 6.05 17.602 1.644 5.308-4.407 6.032-12.286 1.618-17.6-4.415-5.315-12.294-6.05-17.603-1.643-5.308 4.407-6.032 12.285-1.617 17.599Z" fill="#E1DCD3"/><path d="M338.656 224.244c4.415 5.316 12.294 6.05 17.602 1.643 5.308-4.406 6.032-12.285 1.618-17.599-4.415-5.315-12.294-6.05-17.603-1.643-5.308 4.407-6.032 12.286-1.617 17.599Z" fill="#988D6B"/><path d="M211.656 134.244c4.415 5.316 12.294 6.051 17.602 1.644s6.032-12.286 1.618-17.599c-4.415-5.316-12.294-6.051-17.603-1.644-5.308 4.407-6.032 12.286-1.617 17.599Z" fill="#ACA599"/><path d="M579.656 200.244c4.415 5.316 12.294 6.05 17.602 1.643 5.308-4.406 6.032-12.285 1.618-17.599-4.415-5.315-12.294-6.05-17.603-1.643-5.308 4.407-6.032 12.286-1.617 17.599Z" fill="#B5B3AE"/><path d="M52.656 494.244c4.415 5.316 12.294 6.05 17.602 1.643 5.308-4.406 6.032-12.285 1.618-17.599-4.415-5.315-12.294-6.05-17.603-1.643-5.308 4.407-6.032 12.286-1.617 17.599Z" fill="#BEB8AF"/><path d="M375.656 487.244c4.415 5.316 12.294 6.05 17.602 1.643 5.308-4.406 6.032-12.285 1.618-17.599-4.415-5.315-12.294-6.05-17.603-1.643-5.308 4.407-6.032 12.286-1.617 17.599Z" fill="#858778"/><path d="M489.656 526.244c4.415 5.316 12.294 6.05 17.602 1.643 5.308-4.406 6.032-12.285 1.618-17.599-4.415-5.315-12.294-6.05-17.603-1.643-5.308 4.407-6.032 12.286-1.617 17.599Z" fill="#8C8E8E"/><path d="M199.656 641.244c4.415 5.316 12.294 6.05 17.602 1.643 5.308-4.406 6.032-12.285 1.618-17.599-4.415-5.315-12.294-6.05-17.603-1.643-5.308 4.407-6.032 12.286-1.617 17.599Z" fill="#C2BBB0"/><path d="M88.656 303.244c4.415 5.316 12.294 6.05 17.602 1.643 5.308-4.406 6.032-12.285 1.618-17.599-4.415-5.315-12.294-6.05-17.603-1.643-5.308 4.407-6.032 12.286-1.617 17.599Z" fill="#958E83"/><path d="M558.656 303.244c4.415 5.316 12.294 6.05 17.602 1.643 5.308-4.406 6.032-12.285 1.618-17.599-4.415-5.315-12.294-6.05-17.603-1.643-5.308 4.407-6.032 12.286-1.617 17.599Z" fill="#8A9198"/><path d="M348.266 409.765c31.756 0 57.5-25.743 57.5-57.5 0-31.756-25.744-57.5-57.5-57.5-31.757 0-57.5 25.744-57.5 57.5 0 31.757 25.743 57.5 57.5 57.5Z" fill="#FEB94C"/><path d="m352.905 349.832-5.47-1.095c-3.827-.764-7.369-2.049-7.369-6.238 0-4.188 3.386-6.389 9.055-6.389 1.438 0 2.737.156 3.864.469 3.257.899 5.224 3.087 5.856 6.507h8.103c-.345-2.76-1.228-5.154-2.629-7.123-1.702-2.397-4.163-4.184-7.309-5.313a22.165 22.165 0 0 0-3.876-.989l-.483-.078v-7.639h-6.918v7.455l-.504.062c-8.544 1.069-13.855 6.378-13.855 13.857 0 5.401 2.355 9.106 7.197 11.328 1.497.685 3.261 1.239 5.248 1.646l.354.069 7.521 1.436c4.393.782 6.622 2.675 6.622 5.625 0 3.625-3.151 5.704-8.646 5.704-2.323 0-4.406-.379-6.187-1.127-3.109-1.297-5.147-3.68-5.779-6.736h-8.124c.271 2.665 1.09 5.064 2.438 7.144 1.428 2.212 3.415 4.004 5.906 5.324 2.137 1.134 4.596 1.891 7.31 2.249l.499.067v7.383h6.918v-7.374l.49-.073c4.136-.626 7.576-2.215 9.952-4.6 2.385-2.392 3.646-5.546 3.646-9.122 0-6.744-4.136-10.46-13.83-12.429Zm42.851-13.628h-22.273c.803 2.102 1.322 4.373 1.543 6.767l.012.115h22.519a49.542 49.542 0 0 0-1.801-6.882Zm-74.258 25.059h-22.553a49.2 49.2 0 0 0 1.768 6.881h22.234a25.224 25.224 0 0 1-1.449-6.881Zm76.832-11.507h-5.757c.044.796.067 1.608.067 2.419a44.97 44.97 0 0 1-.702 7.883c-2.079 11.665-8.579 21.822-18.301 28.598-9.717 6.776-21.493 9.363-33.164 7.282-11.663-2.082-21.817-8.579-28.598-18.299a44.69 44.69 0 0 1-1.815-2.825h-6.555a50.71 50.71 0 0 0 3.653 6.111c7.657 10.981 19.131 18.325 32.306 20.675 2.948.525 5.945.791 8.91.791 10.216 0 20.088-3.118 28.552-9.018 5.465-3.809 10.033-8.547 13.575-14.083 3.539-5.529 5.927-11.661 7.097-18.223.67-3.751.916-7.553.732-11.311Zm-8.956-26.149c-7.657-10.982-19.129-18.324-32.306-20.675-13.177-2.35-26.48.571-37.463 8.228-10.977 7.652-18.319 19.124-20.672 32.305a50.626 50.626 0 0 0-.741 11.128h5.757a44.81 44.81 0 0 1 .644-10.118c2.082-11.668 8.582-21.822 18.301-28.598 7.489-5.223 16.229-7.983 25.28-7.983 2.631 0 5.283.234 7.884.701 11.666 2.082 21.823 8.579 28.598 18.299a43.531 43.531 0 0 1 1.709 2.64h6.569a51.14 51.14 0 0 0-3.56-5.927Z" fill="#000"/><path d="m352.905 349.832-5.47-1.095c-3.827-.764-7.369-2.049-7.369-6.238 0-4.188 3.386-6.389 9.055-6.389 1.438 0 2.737.156 3.864.469 3.257.899 5.224 3.087 5.856 6.507h8.103c-.345-2.76-1.228-5.154-2.629-7.123-1.702-2.397-4.163-4.184-7.309-5.313a22.165 22.165 0 0 0-3.876-.989l-.483-.078v-7.639h-6.918v7.455l-.504.062c-8.544 1.069-13.855 6.378-13.855 13.857 0 5.401 2.355 9.106 7.197 11.328 1.497.685 3.261 1.239 5.248 1.646l.354.069 7.521 1.436c4.393.782 6.622 2.675 6.622 5.625 0 3.625-3.151 5.704-8.646 5.704-2.323 0-4.406-.379-6.187-1.127-3.109-1.297-5.147-3.68-5.779-6.736h-8.124c.271 2.665 1.09 5.064 2.438 7.144 1.428 2.212 3.415 4.004 5.906 5.324 2.137 1.134 4.596 1.891 7.31 2.249l.499.067v7.383h6.918v-7.374l.49-.073c4.136-.626 7.576-2.215 9.952-4.6 2.385-2.392 3.646-5.546 3.646-9.122 0-6.744-4.136-10.46-13.83-12.429Zm42.851-13.628h-22.273c.803 2.102 1.322 4.373 1.543 6.767l.012.115h22.519a49.542 49.542 0 0 0-1.801-6.882Zm-74.258 25.059h-22.553a49.2 49.2 0 0 0 1.768 6.881h22.234a25.224 25.224 0 0 1-1.449-6.881Zm76.832-11.507h-5.757c.044.796.067 1.608.067 2.419a44.97 44.97 0 0 1-.702 7.883c-2.079 11.665-8.579 21.822-18.301 28.598-9.717 6.776-21.493 9.363-33.164 7.282-11.663-2.082-21.817-8.579-28.598-18.299a44.69 44.69 0 0 1-1.815-2.825h-6.555a50.71 50.71 0 0 0 3.653 6.111c7.657 10.981 19.131 18.325 32.306 20.675 2.948.525 5.945.791 8.91.791 10.216 0 20.088-3.118 28.552-9.018 5.465-3.809 10.033-8.547 13.575-14.083 3.539-5.529 5.927-11.661 7.097-18.223.67-3.751.916-7.553.732-11.311Zm-8.956-26.149c-7.657-10.982-19.129-18.324-32.306-20.675-13.177-2.35-26.48.571-37.463 8.228-10.977 7.652-18.319 19.124-20.672 32.305a50.626 50.626 0 0 0-.741 11.128h5.757a44.81 44.81 0 0 1 .644-10.118c2.082-11.668 8.582-21.822 18.301-28.598 7.489-5.223 16.229-7.983 25.28-7.983 2.631 0 5.283.234 7.884.701 11.666 2.082 21.823 8.579 28.598 18.299a43.531 43.531 0 0 1 1.709 2.64h6.569a51.14 51.14 0 0 0-3.56-5.927Z" fill="#000"/><g filter="url(#i)"><path d="M556.266 309.765a7.5 7.5 0 1 0 0-15 7.5 7.5 0 0 0 0 15Z" fill="#FEB94C"/><path d="m556.871 301.948-.714-.143c-.499-.1-.961-.267-.961-.814 0-.546.442-.833 1.181-.833.188 0 .357.02.504.061.425.117.682.403.764.849h1.057a2.008 2.008 0 0 0-.343-.929c-.222-.313-.543-.546-.953-.693a2.839 2.839 0 0 0-.506-.129l-.063-.01v-.997h-.902v.973l-.066.008c-1.114.139-1.807.832-1.807 1.807 0 .705.307 1.188.939 1.478.195.089.425.161.684.214l.046.009.981.188c.573.102.864.349.864.733 0 .473-.411.744-1.128.744-.303 0-.574-.049-.807-.147-.405-.169-.671-.48-.753-.878h-1.06c.035.347.142.66.318.932.186.288.445.522.77.694.279.148.6.247.954.293l.065.009v.963h.902v-.962l.064-.009c.54-.082.988-.289 1.298-.6.311-.312.476-.724.476-1.19 0-.88-.54-1.364-1.804-1.621Zm5.589-1.778h-2.905c.105.274.172.571.201.883l.002.015h2.937a6.377 6.377 0 0 0-.235-.898Zm-9.686 3.269h-2.941c.054.303.132.604.23.897h2.9a3.316 3.316 0 0 1-.189-.897Zm10.022-1.501h-.751a5.867 5.867 0 0 1-.083 1.344 5.747 5.747 0 0 1-2.387 3.73 5.75 5.75 0 0 1-4.326.95 5.753 5.753 0 0 1-3.967-2.756h-.855c.139.275.299.542.477.797a6.49 6.49 0 0 0 4.214 2.697 6.482 6.482 0 0 0 4.886-1.073 6.5 6.5 0 0 0 2.696-4.214c.088-.489.12-.985.096-1.475Zm-1.168-3.411a6.497 6.497 0 0 0-4.214-2.697 6.497 6.497 0 0 0-4.887 1.074 6.495 6.495 0 0 0-2.696 4.213c-.086.482-.118.97-.097 1.452h.751a5.855 5.855 0 0 1 .084-1.32 5.752 5.752 0 0 1 2.387-3.73 5.742 5.742 0 0 1 4.326-.95 5.746 5.746 0 0 1 3.953 2.731h.857a6.847 6.847 0 0 0-.464-.773Z" fill="#000"/><path d="m556.871 301.948-.714-.143c-.499-.1-.961-.267-.961-.814 0-.546.442-.833 1.181-.833.188 0 .357.02.504.061.425.117.682.403.764.849h1.057a2.008 2.008 0 0 0-.343-.929c-.222-.313-.543-.546-.953-.693a2.839 2.839 0 0 0-.506-.129l-.063-.01v-.997h-.902v.973l-.066.008c-1.114.139-1.807.832-1.807 1.807 0 .705.307 1.188.939 1.478.195.089.425.161.684.214l.046.009.981.188c.573.102.864.349.864.733 0 .473-.411.744-1.128.744-.303 0-.574-.049-.807-.147-.405-.169-.671-.48-.753-.878h-1.06c.035.347.142.66.318.932.186.288.445.522.77.694.279.148.6.247.954.293l.065.009v.963h.902v-.962l.064-.009c.54-.082.988-.289 1.298-.6.311-.312.476-.724.476-1.19 0-.88-.54-1.364-1.804-1.621Zm5.589-1.778h-2.905c.105.274.172.571.201.883l.002.015h2.937a6.377 6.377 0 0 0-.235-.898Zm-9.686 3.269h-2.941c.054.303.132.604.23.897h2.9a3.316 3.316 0 0 1-.189-.897Zm10.022-1.501h-.751a5.867 5.867 0 0 1-.083 1.344 5.747 5.747 0 0 1-2.387 3.73 5.75 5.75 0 0 1-4.326.95 5.753 5.753 0 0 1-3.967-2.756h-.855c.139.275.299.542.477.797a6.49 6.49 0 0 0 4.214 2.697 6.482 6.482 0 0 0 4.886-1.073 6.5 6.5 0 0 0 2.696-4.214c.088-.489.12-.985.096-1.475Zm-1.168-3.411a6.497 6.497 0 0 0-4.214-2.697 6.497 6.497 0 0 0-4.887 1.074 6.495 6.495 0 0 0-2.696 4.213c-.086.482-.118.97-.097 1.452h.751a5.855 5.855 0 0 1 .084-1.32 5.752 5.752 0 0 1 2.387-3.73 5.742 5.742 0 0 1 4.326-.95 5.746 5.746 0 0 1 3.953 2.731h.857a6.847 6.847 0 0 0-.464-.773Z" fill="#000"/></g><g filter="url(#j)"><path d="M71.266 484.765a7.5 7.5 0 1 0 0-15 7.5 7.5 0 0 0 0 15Z" fill="#FEB94C"/><path d="m71.87 476.948-.713-.143c-.499-.1-.96-.267-.96-.814 0-.546.44-.833 1.18-.833.188 0 .357.02.504.061.425.117.682.403.764.849h1.057a2.011 2.011 0 0 0-.343-.929c-.222-.313-.543-.546-.953-.693a2.838 2.838 0 0 0-.506-.129l-.063-.01v-.997h-.902v.973l-.066.008c-1.114.139-1.807.832-1.807 1.807 0 .705.307 1.188.939 1.478.195.089.425.161.684.214l.046.009.981.188c.573.102.864.349.864.733 0 .473-.41.744-1.128.744-.303 0-.574-.049-.807-.147-.405-.169-.671-.48-.754-.878h-1.06c.036.347.143.66.319.932.186.288.445.522.77.694.279.148.6.247.954.293l.065.009v.963h.902v-.962l.064-.009c.54-.082.988-.289 1.298-.6.311-.312.476-.724.476-1.19 0-.88-.54-1.364-1.804-1.621Zm5.59-1.778h-2.905c.105.274.172.571.201.883l.002.015h2.937a6.488 6.488 0 0 0-.235-.898Zm-9.686 3.269h-2.942c.055.303.133.604.231.897h2.9a3.278 3.278 0 0 1-.189-.897Zm10.022-1.501h-.751a5.782 5.782 0 0 1-.083 1.344 5.747 5.747 0 0 1-2.387 3.73 5.75 5.75 0 0 1-4.326.95 5.751 5.751 0 0 1-3.967-2.756h-.855c.139.275.3.542.477.797a6.49 6.49 0 0 0 4.214 2.697 6.481 6.481 0 0 0 4.886-1.073 6.507 6.507 0 0 0 2.696-4.214c.088-.489.12-.985.096-1.475Zm-1.168-3.411a6.497 6.497 0 0 0-4.214-2.697 6.496 6.496 0 0 0-4.887 1.074 6.492 6.492 0 0 0-2.696 4.213c-.086.482-.118.97-.097 1.452h.751a5.843 5.843 0 0 1 .084-1.32 5.747 5.747 0 0 1 2.387-3.73 5.74 5.74 0 0 1 4.326-.95 5.75 5.75 0 0 1 3.953 2.731h.857a6.677 6.677 0 0 0-.464-.773Z" fill="#000"/><path d="m71.87 476.948-.713-.143c-.499-.1-.96-.267-.96-.814 0-.546.44-.833 1.18-.833.188 0 .357.02.504.061.425.117.682.403.764.849h1.057a2.011 2.011 0 0 0-.343-.929c-.222-.313-.543-.546-.953-.693a2.838 2.838 0 0 0-.506-.129l-.063-.01v-.997h-.902v.973l-.066.008c-1.114.139-1.807.832-1.807 1.807 0 .705.307 1.188.939 1.478.195.089.425.161.684.214l.046.009.981.188c.573.102.864.349.864.733 0 .473-.41.744-1.128.744-.303 0-.574-.049-.807-.147-.405-.169-.671-.48-.754-.878h-1.06c.036.347.143.66.319.932.186.288.445.522.77.694.279.148.6.247.954.293l.065.009v.963h.902v-.962l.064-.009c.54-.082.988-.289 1.298-.6.311-.312.476-.724.476-1.19 0-.88-.54-1.364-1.804-1.621Zm5.59-1.778h-2.905c.105.274.172.571.201.883l.002.015h2.937a6.488 6.488 0 0 0-.235-.898Zm-9.686 3.269h-2.942c.055.303.133.604.231.897h2.9a3.278 3.278 0 0 1-.189-.897Zm10.022-1.501h-.751a5.782 5.782 0 0 1-.083 1.344 5.747 5.747 0 0 1-2.387 3.73 5.75 5.75 0 0 1-4.326.95 5.751 5.751 0 0 1-3.967-2.756h-.855c.139.275.3.542.477.797a6.49 6.49 0 0 0 4.214 2.697 6.481 6.481 0 0 0 4.886-1.073 6.507 6.507 0 0 0 2.696-4.214c.088-.489.12-.985.096-1.475Zm-1.168-3.411a6.497 6.497 0 0 0-4.214-2.697 6.496 6.496 0 0 0-4.887 1.074 6.492 6.492 0 0 0-2.696 4.213c-.086.482-.118.97-.097 1.452h.751a5.843 5.843 0 0 1 .084-1.32 5.747 5.747 0 0 1 2.387-3.73 5.74 5.74 0 0 1 4.326-.95 5.75 5.75 0 0 1 3.953 2.731h.857a6.677 6.677 0 0 0-.464-.773Z" fill="#000"/></g><g filter="url(#k)"><path d="M487.266 518.765a7.5 7.5 0 1 0 0-15 7.5 7.5 0 0 0 0 15Z" fill="#FEB94C"/><path d="m487.871 510.948-.714-.143c-.499-.1-.961-.267-.961-.814 0-.546.442-.833 1.181-.833.188 0 .357.02.504.061.425.117.682.403.764.849h1.057a2.008 2.008 0 0 0-.343-.929c-.222-.313-.543-.546-.953-.693a2.839 2.839 0 0 0-.506-.129l-.063-.01v-.997h-.902v.973l-.066.008c-1.114.139-1.807.832-1.807 1.807 0 .705.307 1.188.939 1.478.195.089.425.161.684.214l.046.009.981.188c.573.102.864.349.864.733 0 .473-.411.744-1.128.744-.303 0-.574-.049-.807-.147-.405-.169-.671-.48-.753-.878h-1.06c.035.347.142.66.318.932.186.288.445.522.77.694.279.148.6.247.954.293l.065.009v.963h.902v-.962l.064-.009c.54-.082.988-.289 1.298-.6.311-.312.476-.724.476-1.19 0-.88-.54-1.364-1.804-1.621Zm5.589-1.778h-2.905c.105.274.172.571.201.883l.002.015h2.937a6.377 6.377 0 0 0-.235-.898Zm-9.686 3.269h-2.941c.054.303.132.604.23.897h2.9a3.316 3.316 0 0 1-.189-.897Zm10.022-1.501h-.751a5.867 5.867 0 0 1-.083 1.344 5.747 5.747 0 0 1-2.387 3.73 5.75 5.75 0 0 1-4.326.95 5.753 5.753 0 0 1-3.967-2.756h-.855c.139.275.299.542.477.797a6.49 6.49 0 0 0 4.214 2.697 6.482 6.482 0 0 0 4.886-1.073 6.5 6.5 0 0 0 2.696-4.214c.088-.489.12-.985.096-1.475Zm-1.168-3.411a6.497 6.497 0 0 0-4.214-2.697 6.497 6.497 0 0 0-4.887 1.074 6.495 6.495 0 0 0-2.696 4.213c-.086.482-.118.97-.097 1.452h.751a5.855 5.855 0 0 1 .084-1.32 5.752 5.752 0 0 1 2.387-3.73 5.742 5.742 0 0 1 4.326-.95 5.746 5.746 0 0 1 3.953 2.731h.857a6.847 6.847 0 0 0-.464-.773Z" fill="#000"/><path d="m487.871 510.948-.714-.143c-.499-.1-.961-.267-.961-.814 0-.546.442-.833 1.181-.833.188 0 .357.02.504.061.425.117.682.403.764.849h1.057a2.008 2.008 0 0 0-.343-.929c-.222-.313-.543-.546-.953-.693a2.839 2.839 0 0 0-.506-.129l-.063-.01v-.997h-.902v.973l-.066.008c-1.114.139-1.807.832-1.807 1.807 0 .705.307 1.188.939 1.478.195.089.425.161.684.214l.046.009.981.188c.573.102.864.349.864.733 0 .473-.411.744-1.128.744-.303 0-.574-.049-.807-.147-.405-.169-.671-.48-.753-.878h-1.06c.035.347.142.66.318.932.186.288.445.522.77.694.279.148.6.247.954.293l.065.009v.963h.902v-.962l.064-.009c.54-.082.988-.289 1.298-.6.311-.312.476-.724.476-1.19 0-.88-.54-1.364-1.804-1.621Zm5.589-1.778h-2.905c.105.274.172.571.201.883l.002.015h2.937a6.377 6.377 0 0 0-.235-.898Zm-9.686 3.269h-2.941c.054.303.132.604.23.897h2.9a3.316 3.316 0 0 1-.189-.897Zm10.022-1.501h-.751a5.867 5.867 0 0 1-.083 1.344 5.747 5.747 0 0 1-2.387 3.73 5.75 5.75 0 0 1-4.326.95 5.753 5.753 0 0 1-3.967-2.756h-.855c.139.275.299.542.477.797a6.49 6.49 0 0 0 4.214 2.697 6.482 6.482 0 0 0 4.886-1.073 6.5 6.5 0 0 0 2.696-4.214c.088-.489.12-.985.096-1.475Zm-1.168-3.411a6.497 6.497 0 0 0-4.214-2.697 6.497 6.497 0 0 0-4.887 1.074 6.495 6.495 0 0 0-2.696 4.213c-.086.482-.118.97-.097 1.452h.751a5.855 5.855 0 0 1 .084-1.32 5.752 5.752 0 0 1 2.387-3.73 5.742 5.742 0 0 1 4.326-.95 5.746 5.746 0 0 1 3.953 2.731h.857a6.847 6.847 0 0 0-.464-.773Z" fill="#000"/></g><g filter="url(#l)"><path d="M124.266 106.765a7.5 7.5 0 1 0 0-15 7.5 7.5 0 0 0 0 15Z" fill="#FEB94C"/><path d="m124.871 98.948-.714-.143c-.499-.1-.961-.267-.961-.814 0-.546.442-.833 1.181-.833.188 0 .357.02.504.061.425.117.682.403.764.849h1.057a2.007 2.007 0 0 0-.343-.93c-.222-.312-.543-.545-.953-.692a2.9 2.9 0 0 0-.506-.13l-.063-.01v-.996h-.902v.972l-.066.009c-1.114.14-1.807.832-1.807 1.807 0 .704.307 1.188.939 1.478.195.089.425.161.684.214l.046.01.981.187c.573.102.864.349.864.733 0 .473-.411.744-1.128.744-.303 0-.574-.049-.807-.147-.405-.169-.671-.48-.753-.878h-1.06c.035.347.142.66.318.932.186.288.445.522.77.694.279.148.6.247.954.293l.065.009v.963h.902v-.962l.064-.009c.54-.082.988-.289 1.298-.6.311-.312.476-.724.476-1.19 0-.88-.54-1.365-1.804-1.621Zm5.589-1.778h-2.905c.105.274.172.57.201.883l.002.015h2.937a6.365 6.365 0 0 0-.235-.898Zm-9.686 3.269h-2.941c.054.303.132.604.23.897h2.9a3.316 3.316 0 0 1-.189-.897Zm10.022-1.501h-.751a5.867 5.867 0 0 1-.083 1.344 5.747 5.747 0 0 1-2.387 3.73 5.75 5.75 0 0 1-4.326.95 5.753 5.753 0 0 1-3.967-2.756h-.855c.139.275.299.542.477.797a6.49 6.49 0 0 0 4.214 2.697 6.482 6.482 0 0 0 4.886-1.073 6.5 6.5 0 0 0 2.696-4.214c.088-.49.12-.985.096-1.475Zm-1.168-3.41a6.494 6.494 0 0 0-4.214-2.698 6.495 6.495 0 0 0-4.887 1.073 6.496 6.496 0 0 0-2.696 4.214c-.086.482-.118.97-.097 1.452h.751a5.855 5.855 0 0 1 .084-1.32 5.752 5.752 0 0 1 2.387-3.73 5.74 5.74 0 0 1 4.326-.95 5.744 5.744 0 0 1 3.953 2.731h.857a6.813 6.813 0 0 0-.464-.773Z" fill="#000"/><path d="m124.871 98.948-.714-.143c-.499-.1-.961-.267-.961-.814 0-.546.442-.833 1.181-.833.188 0 .357.02.504.061.425.117.682.403.764.849h1.057a2.007 2.007 0 0 0-.343-.93c-.222-.312-.543-.545-.953-.692a2.9 2.9 0 0 0-.506-.13l-.063-.01v-.996h-.902v.972l-.066.009c-1.114.14-1.807.832-1.807 1.807 0 .704.307 1.188.939 1.478.195.089.425.161.684.214l.046.01.981.187c.573.102.864.349.864.733 0 .473-.411.744-1.128.744-.303 0-.574-.049-.807-.147-.405-.169-.671-.48-.753-.878h-1.06c.035.347.142.66.318.932.186.288.445.522.77.694.279.148.6.247.954.293l.065.009v.963h.902v-.962l.064-.009c.54-.082.988-.289 1.298-.6.311-.312.476-.724.476-1.19 0-.88-.54-1.365-1.804-1.621Zm5.589-1.778h-2.905c.105.274.172.57.201.883l.002.015h2.937a6.365 6.365 0 0 0-.235-.898Zm-9.686 3.269h-2.941c.054.303.132.604.23.897h2.9a3.316 3.316 0 0 1-.189-.897Zm10.022-1.501h-.751a5.867 5.867 0 0 1-.083 1.344 5.747 5.747 0 0 1-2.387 3.73 5.75 5.75 0 0 1-4.326.95 5.753 5.753 0 0 1-3.967-2.756h-.855c.139.275.299.542.477.797a6.49 6.49 0 0 0 4.214 2.697 6.482 6.482 0 0 0 4.886-1.073 6.5 6.5 0 0 0 2.696-4.214c.088-.49.12-.985.096-1.475Zm-1.168-3.41a6.494 6.494 0 0 0-4.214-2.698 6.495 6.495 0 0 0-4.887 1.073 6.496 6.496 0 0 0-2.696 4.214c-.086.482-.118.97-.097 1.452h.751a5.855 5.855 0 0 1 .084-1.32 5.752 5.752 0 0 1 2.387-3.73 5.74 5.74 0 0 1 4.326-.95 5.744 5.744 0 0 1 3.953 2.731h.857a6.813 6.813 0 0 0-.464-.773Z" fill="#000"/></g><defs><linearGradient id="a" x1="242.976" y1="350.586" x2="454.716" y2="350.586" gradientUnits="userSpaceOnUse"><stop stop-color="#FCB017"/><stop offset="1" stop-color="#3675B9"/></linearGradient><linearGradient id="b" x1="212.604" y1="350.374" x2="485.084" y2="350.374" gradientUnits="userSpaceOnUse"><stop stop-color="#CE9326"/><stop offset="1" stop-color="#39689C"/></linearGradient><linearGradient id="c" x1="182.225" y1="350.171" x2="515.465" y2="350.171" gradientUnits="userSpaceOnUse"><stop stop-color="#A97B2C"/><stop offset="1" stop-color="#395B84"/></linearGradient><linearGradient id="d" x1="151.856" y1="349.954" x2="545.836" y2="349.954" gradientUnits="userSpaceOnUse"><stop stop-color="#87652D"/><stop offset="1" stop-color="#354E6D"/></linearGradient><linearGradient id="e" x1="121.473" y1="349.743" x2="576.213" y2="349.743" gradientUnits="userSpaceOnUse"><stop stop-color="#6A512A"/><stop offset="1" stop-color="#2F4157"/></linearGradient><linearGradient id="f" x1="91.104" y1="349.536" x2="606.584" y2="349.536" gradientUnits="userSpaceOnUse"><stop stop-color="#4F3F26"/><stop offset="1" stop-color="#283544"/></linearGradient><linearGradient id="g" x1="60.726" y1="349.313" x2="636.966" y2="349.313" gradientUnits="userSpaceOnUse"><stop stop-color="#382E1F"/><stop offset="1" stop-color="#202831"/></linearGradient><linearGradient id="h" x1="30.353" y1="349.102" x2="667.333" y2="349.102" gradientUnits="userSpaceOnUse"><stop stop-color="#201C14"/><stop offset="1" stop-color="#14181D"/></linearGradient><filter id="i" x="523.766" y="284.765" width="65" height="65" filterUnits="userSpaceOnUse" color-interpolation-filters="sRGB"><feFlood flood-opacity="0" result="BackgroundImageFix"/><feColorMatrix in="SourceAlpha" values="0 0 0 0 0 0 0 0 0 0 0 0 0 0 0 0 0 0 127 0" result="hardAlpha"/><feOffset dy="15"/><feGaussianBlur stdDeviation="12.5"/><feComposite in2="hardAlpha" operator="out"/><feColorMatrix values="0 0 0 0 0.0823529 0 0 0 0 0.101961 0 0 0 0 0.145098 0 0 0 0.3 0"/><feBlend in2="BackgroundImageFix" result="effect1_dropShadow_86_865"/><feBlend in="SourceGraphic" in2="effect1_dropShadow_86_865" result="shape"/></filter><filter id="j" x="38.766" y="459.765" width="65" height="65" filterUnits="userSpaceOnUse" color-interpolation-filters="sRGB"><feFlood flood-opacity="0" result="BackgroundImageFix"/><feColorMatrix in="SourceAlpha" values="0 0 0 0 0 0 0 0 0 0 0 0 0 0 0 0 0 0 127 0" result="hardAlpha"/><feOffset dy="15"/><feGaussianBlur stdDeviation="12.5"/><feComposite in2="hardAlpha" operator="out"/><feColorMatrix values="0 0 0 0 0.0823529 0 0 0 0 0.101961 0 0 0 0 0.145098 0 0 0 0.3 0"/><feBlend in2="BackgroundImageFix" result="effect1_dropShadow_86_865"/><feBlend in="SourceGraphic" in2="effect1_dropShadow_86_865" result="shape"/></filter><filter id="k" x="454.766" y="493.765" width="65" height="65" filterUnits="userSpaceOnUse" color-interpolation-filters="sRGB"><feFlood flood-opacity="0" result="BackgroundImageFix"/><feColorMatrix in="SourceAlpha" values="0 0 0 0 0 0 0 0 0 0 0 0 0 0 0 0 0 0 127 0" result="hardAlpha"/><feOffset dy="15"/><feGaussianBlur stdDeviation="12.5"/><feComposite in2="hardAlpha" operator="out"/><feColorMatrix values="0 0 0 0 0.0823529 0 0 0 0 0.101961 0 0 0 0 0.145098 0 0 0 0.3 0"/><feBlend in2="BackgroundImageFix" result="effect1_dropShadow_86_865"/><feBlend in="SourceGraphic" in2="effect1_dropShadow_86_865" result="shape"/></filter><filter id="l" x="91.766" y="81.765" width="65" height="65" filterUnits="userSpaceOnUse" color-interpolation-filters="sRGB"><feFlood flood-opacity="0" result="BackgroundImageFix"/><feColorMatrix in="SourceAlpha" values="0 0 0 0 0 0 0 0 0 0 0 0 0 0 0 0 0 0 127 0" result="hardAlpha"/><feOffset dy="15"/><feGaussianBlur stdDeviation="12.5"/><feComposite in2="hardAlpha" operator="out"/><feColorMatrix values="0 0 0 0 0.0823529 0 0 0 0 0.101961 0 0 0 0 0.145098 0 0 0 0.3 0"/><feBlend in2="BackgroundImageFix" result="effect1_dropShadow_86_865"/><feBlend in="SourceGraphic" in2="effect1_dropShadow_86_865" result="shape"/></filter></defs></svg>